%TF.GenerationSoftware,KiCad,Pcbnew,9.0.7-1.fc43*%
%TF.CreationDate,2026-03-03T16:06:51-06:00*%
%TF.ProjectId,buzzer,62757a7a-6572-42e6-9b69-6361645f7063,rev?*%
%TF.SameCoordinates,Original*%
%TF.FileFunction,Legend,Top*%
%TF.FilePolarity,Positive*%
%FSLAX46Y46*%
G04 Gerber Fmt 4.6, Leading zero omitted, Abs format (unit mm)*
G04 Created by KiCad (PCBNEW 9.0.7-1.fc43) date 2026-03-03 16:06:51*
%MOMM*%
%LPD*%
G01*
G04 APERTURE LIST*
%ADD10C,0.150000*%
%ADD11C,0.106680*%
%ADD12C,0.120000*%
%ADD13C,0.100000*%
%ADD14C,0.127000*%
%ADD15C,0.504000*%
G04 APERTURE END LIST*
D10*
X83261905Y-86954819D02*
X83261905Y-85954819D01*
X83261905Y-85954819D02*
X83500000Y-85954819D01*
X83500000Y-85954819D02*
X83642857Y-86002438D01*
X83642857Y-86002438D02*
X83738095Y-86097676D01*
X83738095Y-86097676D02*
X83785714Y-86192914D01*
X83785714Y-86192914D02*
X83833333Y-86383390D01*
X83833333Y-86383390D02*
X83833333Y-86526247D01*
X83833333Y-86526247D02*
X83785714Y-86716723D01*
X83785714Y-86716723D02*
X83738095Y-86811961D01*
X83738095Y-86811961D02*
X83642857Y-86907200D01*
X83642857Y-86907200D02*
X83500000Y-86954819D01*
X83500000Y-86954819D02*
X83261905Y-86954819D01*
X84785714Y-86954819D02*
X84214286Y-86954819D01*
X84500000Y-86954819D02*
X84500000Y-85954819D01*
X84500000Y-85954819D02*
X84404762Y-86097676D01*
X84404762Y-86097676D02*
X84309524Y-86192914D01*
X84309524Y-86192914D02*
X84214286Y-86240533D01*
D11*
X83868450Y-60240391D02*
X83868450Y-60873698D01*
X83868450Y-60873698D02*
X83905704Y-60948204D01*
X83905704Y-60948204D02*
X83942957Y-60985458D01*
X83942957Y-60985458D02*
X84017464Y-61022711D01*
X84017464Y-61022711D02*
X84166477Y-61022711D01*
X84166477Y-61022711D02*
X84240984Y-60985458D01*
X84240984Y-60985458D02*
X84278237Y-60948204D01*
X84278237Y-60948204D02*
X84315490Y-60873698D01*
X84315490Y-60873698D02*
X84315490Y-60240391D01*
X85097810Y-61022711D02*
X84650770Y-61022711D01*
X84874290Y-61022711D02*
X84874290Y-60240391D01*
X84874290Y-60240391D02*
X84799783Y-60352151D01*
X84799783Y-60352151D02*
X84725277Y-60426658D01*
X84725277Y-60426658D02*
X84650770Y-60463911D01*
D10*
X73431009Y-72980952D02*
X73478628Y-72838095D01*
X73478628Y-72838095D02*
X73526247Y-72790476D01*
X73526247Y-72790476D02*
X73621485Y-72742857D01*
X73621485Y-72742857D02*
X73764342Y-72742857D01*
X73764342Y-72742857D02*
X73859580Y-72790476D01*
X73859580Y-72790476D02*
X73907200Y-72838095D01*
X73907200Y-72838095D02*
X73954819Y-72933333D01*
X73954819Y-72933333D02*
X73954819Y-73314285D01*
X73954819Y-73314285D02*
X72954819Y-73314285D01*
X72954819Y-73314285D02*
X72954819Y-72980952D01*
X72954819Y-72980952D02*
X73002438Y-72885714D01*
X73002438Y-72885714D02*
X73050057Y-72838095D01*
X73050057Y-72838095D02*
X73145295Y-72790476D01*
X73145295Y-72790476D02*
X73240533Y-72790476D01*
X73240533Y-72790476D02*
X73335771Y-72838095D01*
X73335771Y-72838095D02*
X73383390Y-72885714D01*
X73383390Y-72885714D02*
X73431009Y-72980952D01*
X73431009Y-72980952D02*
X73431009Y-73314285D01*
X72954819Y-72409523D02*
X72954819Y-71742857D01*
X72954819Y-71742857D02*
X73954819Y-72409523D01*
X73954819Y-72409523D02*
X73954819Y-71742857D01*
X73954819Y-70838095D02*
X73954819Y-71409523D01*
X73954819Y-71123809D02*
X72954819Y-71123809D01*
X72954819Y-71123809D02*
X73097676Y-71219047D01*
X73097676Y-71219047D02*
X73192914Y-71314285D01*
X73192914Y-71314285D02*
X73240533Y-71409523D01*
D12*
%TO.C,D1*%
X76670000Y-84955000D02*
X76670000Y-88045000D01*
X76670000Y-84955170D02*
G75*
G02*
X82220000Y-86500000I2560000J-1544830D01*
G01*
X82220000Y-86500000D02*
G75*
G02*
X76670000Y-88044830I-2990000J0D01*
G01*
X81730000Y-86500000D02*
G75*
G02*
X76730000Y-86500000I-2500000J0D01*
G01*
X76730000Y-86500000D02*
G75*
G02*
X81730000Y-86500000I2500000J0D01*
G01*
D13*
%TO.C,U1*%
X76500000Y-80473000D02*
X76500000Y-63328000D01*
X78405000Y-82378000D02*
X92375000Y-82378000D01*
D14*
X80895000Y-61423000D02*
X80898728Y-60412728D01*
X81398728Y-59913000D02*
X89394000Y-59913000D01*
X89894000Y-60413000D02*
X89894000Y-61423000D01*
D13*
X92375000Y-61423000D02*
X78405000Y-61423000D01*
X94280000Y-80473000D02*
X94280000Y-63328000D01*
X76500000Y-63324000D02*
G75*
G02*
X78405000Y-61419000I1905001J-1D01*
G01*
X78405000Y-82378000D02*
G75*
G02*
X76500000Y-80473000I0J1905000D01*
G01*
D14*
X80898728Y-60412728D02*
G75*
G02*
X81398728Y-59912998I500022J-292D01*
G01*
X89394000Y-59913000D02*
G75*
G02*
X89894000Y-60413000I-100J-500100D01*
G01*
D13*
X92375000Y-61423000D02*
G75*
G02*
X94280000Y-63328000I-50J-1905050D01*
G01*
X94280000Y-80473000D02*
G75*
G02*
X92375000Y-82378000I-1905000J0D01*
G01*
D15*
X76542000Y-61839000D02*
G75*
G02*
X76038000Y-61839000I-252000J0D01*
G01*
X76038000Y-61839000D02*
G75*
G02*
X76542000Y-61839000I252000J0D01*
G01*
X77816000Y-62556000D02*
G75*
G02*
X77312000Y-62556000I-252000J0D01*
G01*
X77312000Y-62556000D02*
G75*
G02*
X77816000Y-62556000I252000J0D01*
G01*
D12*
%TO.C,BZ1*%
X63400000Y-77700000D02*
X63400000Y-66500000D01*
X66650000Y-77700000D02*
X63400000Y-77700000D01*
X72600000Y-77700000D02*
X69350000Y-77700000D01*
X63400000Y-66500000D02*
X66650000Y-66500000D01*
X69350000Y-66500000D02*
X72600000Y-66500000D01*
X72600000Y-66500000D02*
X72600000Y-77700000D01*
%TD*%
M02*
