%TF.GenerationSoftware,KiCad,Pcbnew,9.0.7-1.fc43*%
%TF.CreationDate,2026-03-03T16:06:51-06:00*%
%TF.ProjectId,buzzer,62757a7a-6572-42e6-9b69-6361645f7063,rev?*%
%TF.SameCoordinates,Original*%
%TF.FileFunction,Copper,L1,Top*%
%TF.FilePolarity,Positive*%
%FSLAX46Y46*%
G04 Gerber Fmt 4.6, Leading zero omitted, Abs format (unit mm)*
G04 Created by KiCad (PCBNEW 9.0.7-1.fc43) date 2026-03-03 16:06:51*
%MOMM*%
%LPD*%
G01*
G04 APERTURE LIST*
G04 Aperture macros list*
%AMRoundRect*
0 Rectangle with rounded corners*
0 $1 Rounding radius*
0 $2 $3 $4 $5 $6 $7 $8 $9 X,Y pos of 4 corners*
0 Add a 4 corners polygon primitive as box body*
4,1,4,$2,$3,$4,$5,$6,$7,$8,$9,$2,$3,0*
0 Add four circle primitives for the rounded corners*
1,1,$1+$1,$2,$3*
1,1,$1+$1,$4,$5*
1,1,$1+$1,$6,$7*
1,1,$1+$1,$8,$9*
0 Add four rect primitives between the rounded corners*
20,1,$1+$1,$2,$3,$4,$5,0*
20,1,$1+$1,$4,$5,$6,$7,0*
20,1,$1+$1,$6,$7,$8,$9,0*
20,1,$1+$1,$8,$9,$2,$3,0*%
G04 Aperture macros list end*
%TA.AperFunction,ComponentPad*%
%ADD10R,1.800000X1.800000*%
%TD*%
%TA.AperFunction,ComponentPad*%
%ADD11C,1.800000*%
%TD*%
%TA.AperFunction,ComponentPad*%
%ADD12O,2.000000X1.600000*%
%TD*%
%TA.AperFunction,ComponentPad*%
%ADD13R,2.000000X1.600000*%
%TD*%
%TA.AperFunction,SMDPad,CuDef*%
%ADD14RoundRect,0.500000X-0.875000X-0.500000X0.875000X-0.500000X0.875000X0.500000X-0.875000X0.500000X0*%
%TD*%
%TA.AperFunction,SMDPad,CuDef*%
%ADD15RoundRect,0.275000X0.975000X0.275000X-0.975000X0.275000X-0.975000X-0.275000X0.975000X-0.275000X0*%
%TD*%
%TA.AperFunction,SMDPad,CuDef*%
%ADD16RoundRect,0.275000X-0.275000X0.975000X-0.275000X-0.975000X0.275000X-0.975000X0.275000X0.975000X0*%
%TD*%
%TA.AperFunction,SMDPad,CuDef*%
%ADD17C,1.700000*%
%TD*%
%TA.AperFunction,SMDPad,CuDef*%
%ADD18R,2.200000X2.200000*%
%TD*%
%TA.AperFunction,ViaPad*%
%ADD19C,0.600000*%
%TD*%
%TA.AperFunction,Conductor*%
%ADD20C,0.200000*%
%TD*%
G04 APERTURE END LIST*
D10*
%TO.P,D1,1,K*%
%TO.N,GND*%
X77960000Y-86500000D03*
D11*
%TO.P,D1,2,A*%
%TO.N,Net-(BZ1-+)*%
X80500000Y-86500000D03*
%TD*%
D12*
%TO.P,BT1,2,-*%
%TO.N,GND*%
X74500000Y-77000000D03*
D13*
%TO.P,BT1,1,+*%
%TO.N,Net-(BT1-+)*%
X74500000Y-56500000D03*
%TD*%
D14*
%TO.P,U1,1,P0.02_A0_D0*%
%TO.N,Net-(Q1-B)*%
X77335000Y-64340000D03*
%TO.P,U1,2,P0.03_A1_D1*%
%TO.N,unconnected-(U1-P0.03_A1_D1-Pad2)*%
X77335000Y-66880000D03*
%TO.P,U1,3,P0.28_A2_D2*%
%TO.N,unconnected-(U1-P0.28_A2_D2-Pad3)*%
X77335000Y-69420000D03*
%TO.P,U1,4,P0.29_A3_D3*%
%TO.N,unconnected-(U1-P0.29_A3_D3-Pad4)*%
X77335000Y-71960000D03*
%TO.P,U1,5,P0.04_A4_D4_SDA*%
%TO.N,unconnected-(U1-P0.04_A4_D4_SDA-Pad5)*%
X77335000Y-74500000D03*
%TO.P,U1,6,P0.05_A5_D5_SCL*%
%TO.N,unconnected-(U1-P0.05_A5_D5_SCL-Pad6)*%
X77335000Y-77040000D03*
%TO.P,U1,7,P1.11_D6_TX*%
%TO.N,unconnected-(U1-P1.11_D6_TX-Pad7)*%
X77335000Y-79580000D03*
%TO.P,U1,8,P1.12_D7_RX*%
%TO.N,unconnected-(U1-P1.12_D7_RX-Pad8)*%
X93500000Y-79580000D03*
%TO.P,U1,9,P1.13_D8_SCK*%
%TO.N,unconnected-(U1-P1.13_D8_SCK-Pad9)*%
X93500000Y-77040000D03*
%TO.P,U1,10,P1.14_D9_MISO*%
%TO.N,unconnected-(U1-P1.14_D9_MISO-Pad10)*%
X93500000Y-74500000D03*
%TO.P,U1,11,P1.15_D10_MOSI*%
%TO.N,unconnected-(U1-P1.15_D10_MOSI-Pad11)*%
X93500000Y-71960000D03*
%TO.P,U1,12,3V3*%
%TO.N,unconnected-(U1-3V3-Pad12)*%
X93500000Y-69420000D03*
%TO.P,U1,13,GND*%
%TO.N,unconnected-(U1-GND-Pad13)*%
X93500000Y-66880000D03*
%TO.P,U1,14,VBUS*%
%TO.N,unconnected-(U1-VBUS-Pad14)*%
X93500000Y-64340000D03*
D15*
%TO.P,U1,15*%
%TO.N,Net-(BT1-+)*%
X80945000Y-71646500D03*
%TO.P,U1,16*%
%TO.N,GND*%
X80945000Y-69741500D03*
D16*
%TO.P,U1,17*%
%TO.N,N/C*%
X89200000Y-81196900D03*
%TO.P,U1,18*%
X91105000Y-81196900D03*
D17*
%TO.P,U1,19*%
X84120000Y-63391500D03*
%TO.P,U1,20*%
X86660000Y-63391500D03*
%TO.P,U1,21*%
X84120000Y-65931500D03*
%TO.P,U1,22*%
X86660000Y-65931500D03*
%TD*%
D18*
%TO.P,BZ1,1,+*%
%TO.N,Net-(BZ1-+)*%
X68000000Y-78700000D03*
%TO.P,BZ1,2,-*%
%TO.N,GND*%
X68000000Y-65500000D03*
%TD*%
D19*
%TO.N,Net-(BT1-+)*%
X80945000Y-71646500D03*
%TO.N,Net-(Q1-B)*%
X77335000Y-64340000D03*
%TO.N,Net-(BZ1-+)*%
X73152500Y-81735000D03*
%TD*%
D20*
%TO.N,Net-(BZ1-+)*%
X80500000Y-86500000D02*
X79299000Y-87701000D01*
X76759000Y-87701000D02*
X73152500Y-84094500D01*
X79299000Y-87701000D02*
X76759000Y-87701000D01*
X73152500Y-84094500D02*
X73152500Y-81735000D01*
%TO.N,GND*%
X77960000Y-86500000D02*
X77960000Y-81470058D01*
X77960000Y-81470058D02*
X78549058Y-80881000D01*
X80945000Y-69741500D02*
X81112206Y-69741500D01*
X81112206Y-69741500D02*
X82496000Y-71125294D01*
X82496000Y-76934058D02*
X78549058Y-80881000D01*
X82496000Y-71125294D02*
X82496000Y-76934058D01*
X78549058Y-80881000D02*
X76120942Y-80881000D01*
X76120942Y-80881000D02*
X74500000Y-79260058D01*
X74500000Y-79260058D02*
X74500000Y-77000000D01*
%TO.N,Net-(BT1-+)*%
X80945000Y-71646500D02*
X79695000Y-71646500D01*
X79695000Y-71646500D02*
X79394000Y-71345500D01*
X79394000Y-71345500D02*
X79394000Y-61394000D01*
X79394000Y-61394000D02*
X74500000Y-56500000D01*
%TO.N,Net-(BZ1-+)*%
X68000000Y-78700000D02*
X70117500Y-78700000D01*
X70117500Y-78700000D02*
X73152500Y-81735000D01*
%TO.N,GND*%
X68000000Y-65500000D02*
X68911942Y-65500000D01*
X68911942Y-65500000D02*
X74500000Y-71088058D01*
X74500000Y-71088058D02*
X74500000Y-77000000D01*
X68000000Y-65500000D02*
X68000000Y-65952629D01*
%TD*%
M02*
