%TF.GenerationSoftware,KiCad,Pcbnew,9.0.7-1.fc43*%
%TF.CreationDate,2026-03-03T16:06:51-06:00*%
%TF.ProjectId,buzzer,62757a7a-6572-42e6-9b69-6361645f7063,rev?*%
%TF.SameCoordinates,Original*%
%TF.FileFunction,Copper,L2,Bot*%
%TF.FilePolarity,Positive*%
%FSLAX46Y46*%
G04 Gerber Fmt 4.6, Leading zero omitted, Abs format (unit mm)*
G04 Created by KiCad (PCBNEW 9.0.7-1.fc43) date 2026-03-03 16:06:51*
%MOMM*%
%LPD*%
G01*
G04 APERTURE LIST*
G04 Aperture macros list*
%AMRoundRect*
0 Rectangle with rounded corners*
0 $1 Rounding radius*
0 $2 $3 $4 $5 $6 $7 $8 $9 X,Y pos of 4 corners*
0 Add a 4 corners polygon primitive as box body*
4,1,4,$2,$3,$4,$5,$6,$7,$8,$9,$2,$3,0*
0 Add four circle primitives for the rounded corners*
1,1,$1+$1,$2,$3*
1,1,$1+$1,$4,$5*
1,1,$1+$1,$6,$7*
1,1,$1+$1,$8,$9*
0 Add four rect primitives between the rounded corners*
20,1,$1+$1,$2,$3,$4,$5,0*
20,1,$1+$1,$4,$5,$6,$7,0*
20,1,$1+$1,$6,$7,$8,$9,0*
20,1,$1+$1,$8,$9,$2,$3,0*%
G04 Aperture macros list end*
%TA.AperFunction,ComponentPad*%
%ADD10R,1.800000X1.800000*%
%TD*%
%TA.AperFunction,ComponentPad*%
%ADD11C,1.800000*%
%TD*%
%TA.AperFunction,ComponentPad*%
%ADD12O,2.000000X1.600000*%
%TD*%
%TA.AperFunction,ComponentPad*%
%ADD13R,2.000000X1.600000*%
%TD*%
%TA.AperFunction,SMDPad,CuDef*%
%ADD14RoundRect,0.150000X0.587500X0.150000X-0.587500X0.150000X-0.587500X-0.150000X0.587500X-0.150000X0*%
%TD*%
%TA.AperFunction,ViaPad*%
%ADD15C,0.600000*%
%TD*%
%TA.AperFunction,Conductor*%
%ADD16C,0.200000*%
%TD*%
G04 APERTURE END LIST*
D10*
%TO.P,D1,1,K*%
%TO.N,GND*%
X77960000Y-86500000D03*
D11*
%TO.P,D1,2,A*%
%TO.N,Net-(BZ1-+)*%
X80500000Y-86500000D03*
%TD*%
D12*
%TO.P,BT1,2,-*%
%TO.N,GND*%
X74500000Y-77000000D03*
D13*
%TO.P,BT1,1,+*%
%TO.N,Net-(BT1-+)*%
X74500000Y-56500000D03*
%TD*%
D14*
%TO.P,Q1,1,B*%
%TO.N,Net-(Q1-B)*%
X73152500Y-79835000D03*
%TO.P,Q1,2,E*%
%TO.N,Net-(BZ1-+)*%
X73152500Y-81735000D03*
%TO.P,Q1,3,C*%
%TO.N,Net-(BT1-+)*%
X71277500Y-80785000D03*
%TD*%
D15*
%TO.N,Net-(BT1-+)*%
X80945000Y-71646500D03*
%TO.N,Net-(Q1-B)*%
X77335000Y-64340000D03*
%TO.N,Net-(BZ1-+)*%
X73152500Y-81735000D03*
%TD*%
D16*
%TO.N,Net-(BT1-+)*%
X71277500Y-80785000D02*
X74215000Y-80785000D01*
X74215000Y-80785000D02*
X80945000Y-74055000D01*
X80945000Y-74055000D02*
X80945000Y-71646500D01*
%TO.N,Net-(Q1-B)*%
X73152500Y-79835000D02*
X73152500Y-68522500D01*
X73152500Y-68522500D02*
X77335000Y-64340000D01*
%TO.N,Net-(BT1-+)*%
X71277500Y-80785000D02*
X71277500Y-59222500D01*
X71277500Y-59222500D02*
X74000000Y-56500000D01*
X74000000Y-56500000D02*
X74500000Y-56500000D01*
%TD*%
%TA.AperFunction,Conductor*%
%TO.N,GND*%
G36*
X79554030Y-53894946D02*
G01*
X80384037Y-53933319D01*
X80389748Y-53933715D01*
X81217086Y-54010379D01*
X81222742Y-54011035D01*
X82045677Y-54125830D01*
X82051319Y-54126751D01*
X82868069Y-54279428D01*
X82873673Y-54280610D01*
X83682501Y-54470844D01*
X83687985Y-54472269D01*
X84487160Y-54699655D01*
X84492633Y-54701349D01*
X85280465Y-54965403D01*
X85285802Y-54967330D01*
X85885102Y-55199500D01*
X86060622Y-55267497D01*
X86065914Y-55269690D01*
X86825994Y-55605298D01*
X86831128Y-55607707D01*
X87574945Y-55978084D01*
X87579993Y-55980746D01*
X88305877Y-56385060D01*
X88310792Y-56387948D01*
X89017258Y-56825373D01*
X89022015Y-56828473D01*
X89707521Y-57298055D01*
X89712151Y-57301387D01*
X90373082Y-57800498D01*
X90375218Y-57802111D01*
X90379708Y-57805668D01*
X91018921Y-58336465D01*
X91023242Y-58340225D01*
X91637271Y-58899986D01*
X91641414Y-58903942D01*
X92228929Y-59491457D01*
X92232885Y-59495600D01*
X92792646Y-60109629D01*
X92796406Y-60113950D01*
X93327203Y-60753163D01*
X93330760Y-60757653D01*
X93831477Y-61420710D01*
X93834821Y-61425358D01*
X94285559Y-62083355D01*
X94304384Y-62110835D01*
X94307511Y-62115634D01*
X94744916Y-62822067D01*
X94747818Y-62827006D01*
X95152120Y-63552868D01*
X95154791Y-63557935D01*
X95234599Y-63718210D01*
X95519946Y-64291265D01*
X95525151Y-64301717D01*
X95527581Y-64306896D01*
X95535725Y-64325339D01*
X95863181Y-65066957D01*
X95865374Y-65072249D01*
X96165532Y-65847044D01*
X96167477Y-65852432D01*
X96431522Y-66640239D01*
X96433216Y-66645711D01*
X96660594Y-67444856D01*
X96662034Y-67450400D01*
X96852260Y-68259197D01*
X96853443Y-68264802D01*
X97006120Y-69081552D01*
X97007042Y-69087205D01*
X97121833Y-69910109D01*
X97122493Y-69915800D01*
X97199155Y-70743122D01*
X97199552Y-70748836D01*
X97237926Y-71578841D01*
X97238058Y-71584568D01*
X97238058Y-72415431D01*
X97237926Y-72421158D01*
X97199552Y-73251163D01*
X97199155Y-73256877D01*
X97122493Y-74084199D01*
X97121833Y-74089890D01*
X97007042Y-74912794D01*
X97006120Y-74918447D01*
X96853443Y-75735197D01*
X96852260Y-75740802D01*
X96662034Y-76549599D01*
X96660594Y-76555143D01*
X96433216Y-77354288D01*
X96431522Y-77359760D01*
X96167477Y-78147567D01*
X96165532Y-78152955D01*
X95865374Y-78927750D01*
X95863181Y-78933042D01*
X95527585Y-79693096D01*
X95525151Y-79698282D01*
X95154791Y-80442064D01*
X95152120Y-80447131D01*
X94747818Y-81172993D01*
X94744916Y-81177932D01*
X94307511Y-81884365D01*
X94304384Y-81889164D01*
X93834823Y-82574639D01*
X93831477Y-82579289D01*
X93330760Y-83242346D01*
X93327203Y-83246836D01*
X92796406Y-83886049D01*
X92792646Y-83890370D01*
X92232885Y-84504399D01*
X92228929Y-84508542D01*
X91641414Y-85096057D01*
X91637271Y-85100013D01*
X91023242Y-85659774D01*
X91018921Y-85663534D01*
X90379708Y-86194331D01*
X90375218Y-86197888D01*
X89712161Y-86698605D01*
X89707511Y-86701951D01*
X89022036Y-87171512D01*
X89017237Y-87174639D01*
X88310804Y-87612044D01*
X88305865Y-87614946D01*
X87580003Y-88019248D01*
X87574936Y-88021919D01*
X86831154Y-88392279D01*
X86825968Y-88394713D01*
X86065914Y-88730309D01*
X86060622Y-88732502D01*
X85285827Y-89032660D01*
X85280439Y-89034605D01*
X84492632Y-89298650D01*
X84487160Y-89300344D01*
X83688015Y-89527722D01*
X83682471Y-89529162D01*
X82873674Y-89719388D01*
X82868069Y-89720571D01*
X82051319Y-89873248D01*
X82045666Y-89874170D01*
X81222762Y-89988961D01*
X81217071Y-89989621D01*
X80389749Y-90066283D01*
X80384035Y-90066680D01*
X79554030Y-90105054D01*
X79548303Y-90105186D01*
X78717441Y-90105186D01*
X78711714Y-90105054D01*
X77881708Y-90066680D01*
X77875994Y-90066283D01*
X77048672Y-89989621D01*
X77042981Y-89988961D01*
X76220077Y-89874170D01*
X76214424Y-89873248D01*
X75397674Y-89720571D01*
X75392069Y-89719388D01*
X74583272Y-89529162D01*
X74577728Y-89527722D01*
X73778583Y-89300344D01*
X73773111Y-89298650D01*
X72985304Y-89034605D01*
X72979916Y-89032660D01*
X72205121Y-88732502D01*
X72199829Y-88730309D01*
X71439775Y-88394713D01*
X71434589Y-88392279D01*
X71333866Y-88342125D01*
X70690807Y-88021919D01*
X70685740Y-88019248D01*
X69959878Y-87614946D01*
X69954939Y-87612044D01*
X69689747Y-87447844D01*
X69248496Y-87174632D01*
X69243718Y-87171519D01*
X68558230Y-86701949D01*
X68553582Y-86698605D01*
X68520594Y-86673694D01*
X67890525Y-86197888D01*
X67886035Y-86194331D01*
X67246822Y-85663534D01*
X67242524Y-85659795D01*
X67124448Y-85552155D01*
X76560000Y-85552155D01*
X76560000Y-86250000D01*
X77584722Y-86250000D01*
X77540667Y-86326306D01*
X77510000Y-86440756D01*
X77510000Y-86559244D01*
X77540667Y-86673694D01*
X77584722Y-86750000D01*
X76560000Y-86750000D01*
X76560000Y-87447844D01*
X76566401Y-87507372D01*
X76566403Y-87507379D01*
X76616645Y-87642086D01*
X76616649Y-87642093D01*
X76702809Y-87757187D01*
X76702812Y-87757190D01*
X76817906Y-87843350D01*
X76817913Y-87843354D01*
X76952620Y-87893596D01*
X76952627Y-87893598D01*
X77012155Y-87899999D01*
X77012172Y-87900000D01*
X77710000Y-87900000D01*
X77710000Y-86875277D01*
X77786306Y-86919333D01*
X77900756Y-86950000D01*
X78019244Y-86950000D01*
X78133694Y-86919333D01*
X78210000Y-86875277D01*
X78210000Y-87900000D01*
X78907828Y-87900000D01*
X78907844Y-87899999D01*
X78967372Y-87893598D01*
X78967379Y-87893596D01*
X79102086Y-87843354D01*
X79102093Y-87843350D01*
X79217187Y-87757190D01*
X79217190Y-87757187D01*
X79303350Y-87642093D01*
X79303354Y-87642086D01*
X79333213Y-87562031D01*
X79375084Y-87506097D01*
X79440548Y-87481680D01*
X79508821Y-87496531D01*
X79537076Y-87517683D01*
X79587636Y-87568243D01*
X79587641Y-87568247D01*
X79743192Y-87681260D01*
X79765978Y-87697815D01*
X79882501Y-87757187D01*
X79962393Y-87797895D01*
X79962396Y-87797896D01*
X80067221Y-87831955D01*
X80172049Y-87866015D01*
X80389778Y-87900500D01*
X80389779Y-87900500D01*
X80610221Y-87900500D01*
X80610222Y-87900500D01*
X80827951Y-87866015D01*
X81037606Y-87797895D01*
X81234022Y-87697815D01*
X81412365Y-87568242D01*
X81568242Y-87412365D01*
X81697815Y-87234022D01*
X81797895Y-87037606D01*
X81866015Y-86827951D01*
X81900500Y-86610222D01*
X81900500Y-86389778D01*
X81866015Y-86172049D01*
X81831955Y-86067221D01*
X81797896Y-85962396D01*
X81797895Y-85962393D01*
X81763237Y-85894375D01*
X81697815Y-85765978D01*
X81623386Y-85663534D01*
X81568247Y-85587641D01*
X81568243Y-85587636D01*
X81412363Y-85431756D01*
X81412358Y-85431752D01*
X81234025Y-85302187D01*
X81234024Y-85302186D01*
X81234022Y-85302185D01*
X81171096Y-85270122D01*
X81037606Y-85202104D01*
X81037603Y-85202103D01*
X80827952Y-85133985D01*
X80719086Y-85116742D01*
X80610222Y-85099500D01*
X80389778Y-85099500D01*
X80317201Y-85110995D01*
X80172047Y-85133985D01*
X79962396Y-85202103D01*
X79962393Y-85202104D01*
X79765974Y-85302187D01*
X79587641Y-85431752D01*
X79587636Y-85431756D01*
X79537075Y-85482317D01*
X79475752Y-85515801D01*
X79406060Y-85510816D01*
X79350127Y-85468945D01*
X79333213Y-85437968D01*
X79303354Y-85357913D01*
X79303350Y-85357906D01*
X79217190Y-85242812D01*
X79217187Y-85242809D01*
X79102093Y-85156649D01*
X79102086Y-85156645D01*
X78967379Y-85106403D01*
X78967372Y-85106401D01*
X78907844Y-85100000D01*
X78210000Y-85100000D01*
X78210000Y-86124722D01*
X78133694Y-86080667D01*
X78019244Y-86050000D01*
X77900756Y-86050000D01*
X77786306Y-86080667D01*
X77710000Y-86124722D01*
X77710000Y-85100000D01*
X77012155Y-85100000D01*
X76952627Y-85106401D01*
X76952620Y-85106403D01*
X76817913Y-85156645D01*
X76817906Y-85156649D01*
X76702812Y-85242809D01*
X76702809Y-85242812D01*
X76616649Y-85357906D01*
X76616645Y-85357913D01*
X76566403Y-85492620D01*
X76566401Y-85492627D01*
X76560000Y-85552155D01*
X67124448Y-85552155D01*
X66690594Y-85156645D01*
X66628472Y-85100013D01*
X66624329Y-85096057D01*
X66036814Y-84508542D01*
X66032858Y-84504399D01*
X65473097Y-83890370D01*
X65469337Y-83886049D01*
X64938540Y-83246836D01*
X64934983Y-83242346D01*
X64434266Y-82579289D01*
X64430920Y-82574639D01*
X63961345Y-81889143D01*
X63958245Y-81884386D01*
X63520820Y-81177920D01*
X63517925Y-81172993D01*
X63507188Y-81153716D01*
X63181670Y-80569298D01*
X70039500Y-80569298D01*
X70039500Y-81000701D01*
X70042401Y-81037567D01*
X70042402Y-81037573D01*
X70088254Y-81195393D01*
X70088255Y-81195396D01*
X70171917Y-81336862D01*
X70171923Y-81336870D01*
X70288129Y-81453076D01*
X70288133Y-81453079D01*
X70288135Y-81453081D01*
X70429602Y-81536744D01*
X70471224Y-81548836D01*
X70587426Y-81582597D01*
X70587429Y-81582597D01*
X70587431Y-81582598D01*
X70624306Y-81585500D01*
X71790500Y-81585500D01*
X71857539Y-81605185D01*
X71903294Y-81657989D01*
X71914500Y-81709500D01*
X71914500Y-81950701D01*
X71917401Y-81987567D01*
X71917402Y-81987573D01*
X71963254Y-82145393D01*
X71963255Y-82145396D01*
X72046917Y-82286862D01*
X72046923Y-82286870D01*
X72163129Y-82403076D01*
X72163133Y-82403079D01*
X72163135Y-82403081D01*
X72304602Y-82486744D01*
X72346224Y-82498836D01*
X72462426Y-82532597D01*
X72462429Y-82532597D01*
X72462431Y-82532598D01*
X72499306Y-82535500D01*
X72499314Y-82535500D01*
X73805686Y-82535500D01*
X73805694Y-82535500D01*
X73842569Y-82532598D01*
X73842571Y-82532597D01*
X73842573Y-82532597D01*
X73884191Y-82520505D01*
X74000398Y-82486744D01*
X74141865Y-82403081D01*
X74258081Y-82286865D01*
X74341744Y-82145398D01*
X74387598Y-81987569D01*
X74390500Y-81950694D01*
X74390500Y-81519306D01*
X74387598Y-81482431D01*
X74387597Y-81482429D01*
X74386460Y-81476201D01*
X74388966Y-81475743D01*
X74389012Y-81457930D01*
X74386244Y-81428949D01*
X74389100Y-81423407D01*
X74389117Y-81417173D01*
X74404921Y-81392718D01*
X74418260Y-81366846D01*
X74425140Y-81361434D01*
X74427042Y-81358493D01*
X74446002Y-81345028D01*
X74446781Y-81344577D01*
X74446785Y-81344577D01*
X74496904Y-81315639D01*
X74583716Y-81265520D01*
X74695520Y-81153716D01*
X74695520Y-81153714D01*
X74705728Y-81143507D01*
X74705730Y-81143504D01*
X81313713Y-74535521D01*
X81313716Y-74535520D01*
X81425520Y-74423716D01*
X81475639Y-74336904D01*
X81504577Y-74286785D01*
X81545500Y-74134058D01*
X81545500Y-73975943D01*
X81545500Y-72226265D01*
X81565185Y-72159226D01*
X81566398Y-72157374D01*
X81654390Y-72025685D01*
X81654390Y-72025684D01*
X81654394Y-72025679D01*
X81714737Y-71879997D01*
X81745500Y-71725342D01*
X81745500Y-71567658D01*
X81745500Y-71567655D01*
X81745499Y-71567653D01*
X81714738Y-71413010D01*
X81714737Y-71413003D01*
X81714735Y-71412998D01*
X81654397Y-71267327D01*
X81654390Y-71267314D01*
X81566789Y-71136211D01*
X81566786Y-71136207D01*
X81455292Y-71024713D01*
X81455288Y-71024710D01*
X81324185Y-70937109D01*
X81324172Y-70937102D01*
X81178501Y-70876764D01*
X81178489Y-70876761D01*
X81023845Y-70846000D01*
X81023842Y-70846000D01*
X80866158Y-70846000D01*
X80866155Y-70846000D01*
X80711510Y-70876761D01*
X80711498Y-70876764D01*
X80565827Y-70937102D01*
X80565814Y-70937109D01*
X80434711Y-71024710D01*
X80434707Y-71024713D01*
X80323213Y-71136207D01*
X80323210Y-71136211D01*
X80235609Y-71267314D01*
X80235602Y-71267327D01*
X80175264Y-71412998D01*
X80175261Y-71413010D01*
X80144500Y-71567653D01*
X80144500Y-71725346D01*
X80175261Y-71879989D01*
X80175264Y-71880001D01*
X80235602Y-72025672D01*
X80235609Y-72025685D01*
X80323602Y-72157374D01*
X80344480Y-72224051D01*
X80344500Y-72226265D01*
X80344500Y-73754903D01*
X80324815Y-73821942D01*
X80308181Y-73842584D01*
X74576546Y-79574218D01*
X74515223Y-79607703D01*
X74445531Y-79602719D01*
X74389598Y-79560847D01*
X74369789Y-79521132D01*
X74341745Y-79424606D01*
X74341744Y-79424603D01*
X74341744Y-79424602D01*
X74258081Y-79283135D01*
X74258079Y-79283133D01*
X74258076Y-79283129D01*
X74141870Y-79166923D01*
X74141862Y-79166917D01*
X74000396Y-79083255D01*
X74000395Y-79083254D01*
X73842404Y-79037353D01*
X73783519Y-78999746D01*
X73754313Y-78936274D01*
X73753000Y-78918277D01*
X73753000Y-78359841D01*
X73772685Y-78292802D01*
X73825489Y-78247047D01*
X73894647Y-78237103D01*
X73915319Y-78241910D01*
X73995582Y-78267990D01*
X74197683Y-78300000D01*
X74250000Y-78300000D01*
X74250000Y-77346409D01*
X74335956Y-77396037D01*
X74444048Y-77425000D01*
X74555952Y-77425000D01*
X74664044Y-77396037D01*
X74750000Y-77346409D01*
X74750000Y-78300000D01*
X74802317Y-78300000D01*
X75004417Y-78267990D01*
X75199031Y-78204755D01*
X75381349Y-78111859D01*
X75546894Y-77991582D01*
X75546895Y-77991582D01*
X75691582Y-77846895D01*
X75691582Y-77846894D01*
X75811859Y-77681349D01*
X75904755Y-77499029D01*
X75967990Y-77304413D01*
X75976609Y-77250000D01*
X74846410Y-77250000D01*
X74896037Y-77164044D01*
X74925000Y-77055952D01*
X74925000Y-76944048D01*
X74896037Y-76835956D01*
X74846410Y-76750000D01*
X75976609Y-76750000D01*
X75967990Y-76695586D01*
X75904755Y-76500970D01*
X75811859Y-76318650D01*
X75691582Y-76153105D01*
X75691582Y-76153104D01*
X75546895Y-76008417D01*
X75381349Y-75888140D01*
X75199031Y-75795244D01*
X75004417Y-75732009D01*
X74802317Y-75700000D01*
X74750000Y-75700000D01*
X74750000Y-76653590D01*
X74664044Y-76603963D01*
X74555952Y-76575000D01*
X74444048Y-76575000D01*
X74335956Y-76603963D01*
X74250000Y-76653590D01*
X74250000Y-75700000D01*
X74197683Y-75700000D01*
X73995581Y-75732010D01*
X73995578Y-75732010D01*
X73915318Y-75758089D01*
X73845477Y-75760084D01*
X73785644Y-75724004D01*
X73754816Y-75661303D01*
X73753000Y-75640158D01*
X73753000Y-68822597D01*
X73772685Y-68755558D01*
X73789319Y-68734916D01*
X75079379Y-67444856D01*
X77349662Y-65174572D01*
X77410983Y-65141089D01*
X77413150Y-65140638D01*
X77471085Y-65129113D01*
X77568497Y-65109737D01*
X77714179Y-65049394D01*
X77845289Y-64961789D01*
X77956789Y-64850289D01*
X78044394Y-64719179D01*
X78104737Y-64573497D01*
X78135500Y-64418842D01*
X78135500Y-64261158D01*
X78135500Y-64261155D01*
X78135499Y-64261153D01*
X78104738Y-64106510D01*
X78104738Y-64106508D01*
X78104737Y-64106503D01*
X78104735Y-64106498D01*
X78044397Y-63960827D01*
X78044390Y-63960814D01*
X77956789Y-63829711D01*
X77956786Y-63829707D01*
X77845292Y-63718213D01*
X77845288Y-63718210D01*
X77714185Y-63630609D01*
X77714172Y-63630602D01*
X77568501Y-63570264D01*
X77568489Y-63570261D01*
X77413845Y-63539500D01*
X77413842Y-63539500D01*
X77256158Y-63539500D01*
X77256155Y-63539500D01*
X77101510Y-63570261D01*
X77101498Y-63570264D01*
X76955827Y-63630602D01*
X76955814Y-63630609D01*
X76824711Y-63718210D01*
X76824707Y-63718213D01*
X76713213Y-63829707D01*
X76713210Y-63829711D01*
X76625609Y-63960814D01*
X76625602Y-63960827D01*
X76565264Y-64106498D01*
X76565261Y-64106508D01*
X76534361Y-64261850D01*
X76501976Y-64323761D01*
X76500425Y-64325339D01*
X72671981Y-68153782D01*
X72671979Y-68153785D01*
X72621861Y-68240594D01*
X72621859Y-68240596D01*
X72592925Y-68290709D01*
X72592924Y-68290710D01*
X72592923Y-68290715D01*
X72551999Y-68443443D01*
X72551999Y-68443445D01*
X72551999Y-68611546D01*
X72552000Y-68611559D01*
X72552000Y-78918277D01*
X72532315Y-78985316D01*
X72479511Y-79031071D01*
X72462596Y-79037353D01*
X72304604Y-79083254D01*
X72304603Y-79083255D01*
X72163137Y-79166917D01*
X72163129Y-79166923D01*
X72089681Y-79240372D01*
X72028358Y-79273857D01*
X71958666Y-79268873D01*
X71902733Y-79227001D01*
X71878316Y-79161537D01*
X71878000Y-79152691D01*
X71878000Y-59522596D01*
X71897685Y-59455557D01*
X71914314Y-59434920D01*
X73512416Y-57836817D01*
X73573739Y-57803333D01*
X73600097Y-57800499D01*
X75547871Y-57800499D01*
X75547872Y-57800499D01*
X75607483Y-57794091D01*
X75742331Y-57743796D01*
X75857546Y-57657546D01*
X75943796Y-57542331D01*
X75994091Y-57407483D01*
X76000500Y-57347873D01*
X76000499Y-55652128D01*
X75994091Y-55592517D01*
X75943796Y-55457669D01*
X75943795Y-55457668D01*
X75943793Y-55457664D01*
X75857547Y-55342455D01*
X75857544Y-55342452D01*
X75742335Y-55256206D01*
X75742328Y-55256202D01*
X75607482Y-55205908D01*
X75607483Y-55205908D01*
X75547883Y-55199501D01*
X75547881Y-55199500D01*
X75547873Y-55199500D01*
X75547864Y-55199500D01*
X73452129Y-55199500D01*
X73452123Y-55199501D01*
X73392516Y-55205908D01*
X73257671Y-55256202D01*
X73257664Y-55256206D01*
X73142455Y-55342452D01*
X73142452Y-55342455D01*
X73056206Y-55457664D01*
X73056202Y-55457671D01*
X73005908Y-55592517D01*
X73004274Y-55607720D01*
X72999501Y-55652123D01*
X72999500Y-55652135D01*
X72999500Y-56599902D01*
X72979815Y-56666941D01*
X72963181Y-56687583D01*
X70796981Y-58853782D01*
X70796979Y-58853784D01*
X70777447Y-58887615D01*
X70769192Y-58901915D01*
X70717923Y-58990715D01*
X70676999Y-59143443D01*
X70676999Y-59143445D01*
X70676999Y-59311546D01*
X70677000Y-59311559D01*
X70677000Y-79868277D01*
X70657315Y-79935316D01*
X70604511Y-79981071D01*
X70587596Y-79987353D01*
X70429604Y-80033254D01*
X70429603Y-80033255D01*
X70288137Y-80116917D01*
X70288129Y-80116923D01*
X70171923Y-80233129D01*
X70171917Y-80233137D01*
X70088255Y-80374603D01*
X70088254Y-80374606D01*
X70042402Y-80532426D01*
X70042401Y-80532432D01*
X70039500Y-80569298D01*
X63181670Y-80569298D01*
X63113618Y-80447121D01*
X63110952Y-80442064D01*
X63077362Y-80374606D01*
X62740579Y-79698256D01*
X62738170Y-79693122D01*
X62402562Y-78933042D01*
X62400369Y-78927750D01*
X62339703Y-78771154D01*
X62100202Y-78152930D01*
X62098275Y-78147593D01*
X61834221Y-77359760D01*
X61832527Y-77354288D01*
X61778398Y-77164044D01*
X61605141Y-76555113D01*
X61603716Y-76549629D01*
X61413482Y-75740801D01*
X61412300Y-75735197D01*
X61259623Y-74918447D01*
X61258701Y-74912794D01*
X61207497Y-74545726D01*
X61143907Y-74089870D01*
X61143250Y-74084199D01*
X61142958Y-74081052D01*
X61066587Y-73256876D01*
X61066191Y-73251163D01*
X61027818Y-72421158D01*
X61027686Y-72415431D01*
X61027686Y-71584568D01*
X61027818Y-71578841D01*
X61066191Y-70748836D01*
X61066588Y-70743122D01*
X61143252Y-69915780D01*
X61143907Y-69910134D01*
X61258703Y-69087187D01*
X61259623Y-69081552D01*
X61317632Y-68771235D01*
X61412301Y-68264793D01*
X61413483Y-68259197D01*
X61417858Y-68240595D01*
X61603719Y-67450360D01*
X61605138Y-67444896D01*
X61832530Y-66645699D01*
X61834221Y-66640239D01*
X62098280Y-65852392D01*
X62100196Y-65847083D01*
X62400372Y-65072240D01*
X62402562Y-65066957D01*
X62738177Y-64306860D01*
X62740571Y-64301760D01*
X63110965Y-63557908D01*
X63113608Y-63552895D01*
X63517943Y-62826975D01*
X63520808Y-62822097D01*
X63958258Y-62115593D01*
X63961332Y-62110876D01*
X64430941Y-61425329D01*
X64434244Y-61420740D01*
X64935003Y-60757626D01*
X64938519Y-60753189D01*
X65469358Y-60113925D01*
X65473076Y-60109652D01*
X66032878Y-59495578D01*
X66036792Y-59491479D01*
X66624351Y-58903920D01*
X66628450Y-58900006D01*
X67242524Y-58340204D01*
X67246797Y-58336486D01*
X67886061Y-57805647D01*
X67890498Y-57802131D01*
X68553612Y-57301372D01*
X68558201Y-57298069D01*
X69243748Y-56828460D01*
X69248465Y-56825386D01*
X69954969Y-56387936D01*
X69959847Y-56385071D01*
X70685767Y-55980736D01*
X70690780Y-55978093D01*
X71434632Y-55607699D01*
X71439732Y-55605305D01*
X72199837Y-55269686D01*
X72205112Y-55267500D01*
X72979955Y-54967324D01*
X72985264Y-54965408D01*
X73773122Y-54701345D01*
X73778571Y-54699658D01*
X74577768Y-54472266D01*
X74583232Y-54470847D01*
X75392079Y-54280608D01*
X75397665Y-54279429D01*
X76214435Y-54126749D01*
X76220059Y-54125831D01*
X77043006Y-54011035D01*
X77048652Y-54010380D01*
X77875998Y-53933715D01*
X77881703Y-53933319D01*
X78711714Y-53894946D01*
X78717441Y-53894814D01*
X79548303Y-53894814D01*
X79554030Y-53894946D01*
G37*
%TD.AperFunction*%
%TD*%
M02*
